<mxfile host="app.diagrams.net" agent="Mozilla/5.0 (Macintosh; Intel Mac OS X 10_15_7) AppleWebKit/605.1.15 (KHTML, like Gecko) Version/18.3 Safari/605.1.15" version="27.1.3">
  <diagram name="第 1 页" id="F0POjvmU8_SQ8nqKJWqz">
    <mxGraphModel dx="976" dy="671" grid="1" gridSize="10" guides="1" tooltips="1" connect="1" arrows="1" fold="1" page="1" pageScale="1" pageWidth="827" pageHeight="1169" math="0" shadow="0">
      <root>
        <mxCell id="0" />
        <mxCell id="1" parent="0" />
        <mxCell id="ECd23hHWBCjZt6zjwNRH-1" value="&lt;font style=&quot;font-size: 6px;&quot;&gt;E: 200J&lt;/font&gt;&lt;div&gt;&lt;font style=&quot;font-size: 6px;&quot;&gt;V: 3000m^3&lt;/font&gt;&lt;/div&gt;" style="ellipse;whiteSpace=wrap;html=1;aspect=fixed;fillColor=#d5e8d4;strokeColor=#82b366;" vertex="1" parent="1">
          <mxGeometry x="230" y="220" width="50" height="50" as="geometry" />
        </mxCell>
        <mxCell id="ECd23hHWBCjZt6zjwNRH-2" value="" style="endArrow=none;html=1;rounded=0;exitX=1;exitY=1;exitDx=0;exitDy=0;entryX=0;entryY=0;entryDx=0;entryDy=0;strokeWidth=2;" edge="1" parent="1" source="ECd23hHWBCjZt6zjwNRH-1" target="ECd23hHWBCjZt6zjwNRH-3">
          <mxGeometry width="50" height="50" relative="1" as="geometry">
            <mxPoint x="390" y="290" as="sourcePoint" />
            <mxPoint x="320" y="270" as="targetPoint" />
          </mxGeometry>
        </mxCell>
        <mxCell id="ECd23hHWBCjZt6zjwNRH-3" value="&lt;font style=&quot;font-size: 6px;&quot;&gt;E: 20J&lt;/font&gt;&lt;div&gt;&lt;font style=&quot;font-size: 6px;&quot;&gt;V: 300m^3&lt;/font&gt;&lt;/div&gt;" style="ellipse;whiteSpace=wrap;html=1;aspect=fixed;fillColor=#e1d5e7;strokeColor=#9673a6;" vertex="1" parent="1">
          <mxGeometry x="310" y="300" width="50" height="50" as="geometry" />
        </mxCell>
        <mxCell id="ECd23hHWBCjZt6zjwNRH-4" value="&lt;font style=&quot;font-size: 6px;&quot;&gt;E: 2J&lt;/font&gt;&lt;div&gt;&lt;font style=&quot;font-size: 6px;&quot;&gt;V: 30m^3&lt;/font&gt;&lt;/div&gt;" style="ellipse;whiteSpace=wrap;html=1;aspect=fixed;fillColor=#f8cecc;strokeColor=#b85450;" vertex="1" parent="1">
          <mxGeometry x="460" y="300" width="50" height="50" as="geometry" />
        </mxCell>
        <mxCell id="ECd23hHWBCjZt6zjwNRH-5" value="" style="endArrow=none;html=1;rounded=0;exitX=0;exitY=0.5;exitDx=0;exitDy=0;entryX=1;entryY=0.5;entryDx=0;entryDy=0;strokeWidth=4;" edge="1" parent="1" source="ECd23hHWBCjZt6zjwNRH-4" target="ECd23hHWBCjZt6zjwNRH-3">
          <mxGeometry width="50" height="50" relative="1" as="geometry">
            <mxPoint x="290" y="280" as="sourcePoint" />
            <mxPoint x="334" y="324" as="targetPoint" />
          </mxGeometry>
        </mxCell>
        <mxCell id="ECd23hHWBCjZt6zjwNRH-6" value="&lt;font style=&quot;font-size: 6px;&quot;&gt;E: 20J&lt;/font&gt;&lt;div&gt;&lt;font style=&quot;font-size: 6px;&quot;&gt;V: 300m^3&lt;/font&gt;&lt;/div&gt;" style="ellipse;whiteSpace=wrap;html=1;aspect=fixed;fillColor=#fff2cc;strokeColor=#d6b656;" vertex="1" parent="1">
          <mxGeometry x="310" y="440" width="50" height="50" as="geometry" />
        </mxCell>
        <mxCell id="ECd23hHWBCjZt6zjwNRH-7" value="" style="endArrow=none;html=1;rounded=0;exitX=0.5;exitY=1;exitDx=0;exitDy=0;entryX=0.5;entryY=0;entryDx=0;entryDy=0;strokeWidth=3;" edge="1" parent="1" source="ECd23hHWBCjZt6zjwNRH-3" target="ECd23hHWBCjZt6zjwNRH-6">
          <mxGeometry width="50" height="50" relative="1" as="geometry">
            <mxPoint x="300" y="290" as="sourcePoint" />
            <mxPoint x="344" y="334" as="targetPoint" />
          </mxGeometry>
        </mxCell>
      </root>
    </mxGraphModel>
  </diagram>
</mxfile>
